<svg xmlns="http://www.w3.org/2000/svg" xmlns:xlink="http://www.w3.org/1999/xlink" width="56px" height="56px" viewBox="0 0 56 60" version="1.1">
<g id="surface1">
<path style=" stroke:none;fill-rule:nonzero;fill:#ffffff;fill-opacity:1;" d="M 6.941406 45.945312 L 6.941406 10.6875 L 0 10.6875 L 0 42.054688 C 0 46.039062 4.183594 49.269531 9.847656 49.269531 C 10.222656 49.269531 10.589844 49.253906 10.957031 49.226562 C 8.683594 48.984375 6.941406 47.609375 6.941406 45.945312 "/>
<path style=" stroke:none;fill-rule:nonzero;fill:#ffffff;fill-opacity:1;" d="M 14.792969 0 L 14.792969 49.296875 C 19.054688 48.164062 21.75 44.609375 21.75 40.390625 L 21.75 0 L 14.792969 0 "/>
<path style=" stroke:none;fill-rule:nonzero;fill:#ffffff;fill-opacity:1;" d="M 29.582031 10.738281 C 31.644531 15.378906 31.949219 18.667969 31.746094 21.113281 C 31.597656 22.878906 31.363281 25.296875 30.769531 27.988281 C 29.894531 31.953125 29.625 34.039062 29.617188 35.386719 C 29.628906 36.742188 29.902344 38.820312 30.789062 42.789062 C 31.390625 45.480469 31.632812 47.898438 31.785156 49.664062 C 31.996094 52.109375 31.699219 55.398438 29.648438 60.039062 L 36.613281 60.039062 C 38.660156 55.398438 38.960938 52.109375 38.75 49.664062 C 38.597656 47.898438 38.351562 45.480469 37.75 42.789062 C 36.867188 38.820312 36.589844 36.742188 36.578125 35.386719 C 36.585938 34.039062 36.859375 31.953125 37.730469 27.988281 C 38.324219 25.296875 38.5625 22.878906 38.710938 21.113281 C 38.914062 18.667969 38.609375 15.378906 36.546875 10.738281 L 29.582031 10.738281 "/>
<path style=" stroke:none;fill-rule:nonzero;fill:#ffffff;fill-opacity:1;" d="M 46.71875 10.71875 C 46.71875 10.71875 49.195312 18.734375 49.195312 30.007812 C 49.195312 41.285156 46.71875 49.300781 46.71875 49.300781 L 53.527344 49.300781 C 53.527344 49.300781 56.007812 41.285156 56.007812 30.007812 C 56.007812 18.730469 53.527344 10.71875 53.527344 10.71875 L 46.71875 10.71875 "/>
</g>
</svg>